<!-- <?xml version="1.0" standalone="no"?>
<!DOCTYPE svg PUBLIC "-//W3C//DTD SVG 20010904//EN" "http://www.w3.org/TR/2001/REC-SVG-20010904/DTD/svg10.dtd"> -->
<svg version="1.0" xmlns="http://www.w3.org/2000/svg"
  width="20" height="20" viewBox="0 0 2000.000000 1602.000000"
  preserveAspectRatio="xMidYMid meet">

  <g transform="translate(0.000000,1602.000000) scale(0.100000,-0.100000)"
    fill='currentColor' stroke="none">
    <path
      d="M4472 15523 c-12 -41 -3996 -14990 -4007 -15035 l-7 -28 965 0 c911
0 966 1 971 18 2 9 708 2665 1567 5902 859 3237 1563 5887 1565 5888 1 2 1004
-867 2229 -1932 l2226 -1936 142 123 c608 528 4349 3748 4351 3745 2 -1 706
-2651 1565 -5888 859 -3237 1565 -5893 1567 -5902 5 -17 60 -18 971 -18 l965
0 -7 28 c-19 80 -3998 15003 -4008 15034 l-12 37 -2765 -2399 c-1521 -1320
-2768 -2398 -2771 -2397 -6 2 -5407 4716 -5470 4774 l-26 24 -11 -38z" />
    <path
      d="M5835 11169 c-3 -8 -640 -2390 -1415 -5294 -776 -2904 -1419 -5310
-1429 -5348 l-18 -67 1006 2 1006 3 985 3727 c542 2050 987 3729 990 3732 3 3
683 -602 1510 -1344 827 -743 1507 -1350 1511 -1350 6 0 465 410 2547 2280
254 228 466 416 470 417 4 2 459 -1676 1012 -3728 552 -2052 1009 -3733 1015
-3735 5 -2 458 -3 1005 -2 l995 3 -1430 5353 c-786 2945 -1434 5353 -1440
5352 -8 -1 -1399 -1196 -3225 -2770 -831 -716 -943 -811 -955 -806 -8 3 -202
169 -432 368 -230 200 -1145 995 -2033 1767 -888 772 -1627 1415 -1642 1429
-21 19 -29 22 -33 11z" />
    <path
      d="M7266 6863 c-7 -23 -1696 -6396 -1696 -6400 0 -2 452 -3 1005 -3
l1006 0 1197 985 c658 542 1199 985 1202 985 3 0 405 -443 893 -985 l888 -985
1295 0 1294 0 -102 98 c-57 55 -751 714 -1543 1467 -792 752 -1440 1371 -1440
1375 0 5 407 346 905 760 498 413 904 754 904 758 -1 4 -122 413 -270 909
l-268 901 -36 -28 c-19 -15 -957 -780 -2085 -1699 -1127 -919 -2051 -1666
-2053 -1662 -2 5 126 481 283 1058 170 621 283 1053 278 1060 -6 9 -1552 1343
-1635 1411 -14 11 -17 10 -22 -5z" />
  </g>
</svg>