<?xml version="1.0" standalone="no"?>
<!DOCTYPE svg PUBLIC "-//W3C//DTD SVG 20010904//EN" "http://www.w3.org/TR/2001/REC-SVG-20010904/DTD/svg10.dtd">
<svg version="1.0" xmlns="http://www.w3.org/2000/svg"
  width="1500.000000pt" height="1526.000000pt" viewBox="0 0 1500.000000 1526.000000"
  preserveAspectRatio="xMidYMid meet">

  <g transform="translate(0.000000,1526.000000) scale(0.100000,-0.100000)"
    fill="currentColor" stroke="none">
    <path
      d="M7260 14997 c1 -32 14 -56 36 -61 45 -12 48 -32 41 -303 -7 -273 -13
-301 -59 -310 -24 -5 -28 -10 -28 -39 l0 -34 213 0 c118 0 247 -3 288 -6 l74
-6 18 93 c10 51 14 96 9 101 -4 4 -21 10 -38 14 -28 5 -32 3 -49 -36 -25 -55
-64 -86 -119 -94 -55 -9 -122 8 -136 34 -5 10 -10 68 -10 129 l0 111 45 0 c35
0 52 -6 70 -25 14 -13 25 -33 25 -43 0 -15 9 -21 33 -25 17 -2 33 -4 33 -3 1
0 4 58 8 129 8 138 8 138 -48 117 -15 -5 -26 -17 -26 -28 0 -33 -32 -52 -87
-52 l-51 0 5 138 c3 75 7 138 8 140 2 2 35 0 75 -4 89 -8 129 -33 150 -92 14
-40 17 -42 54 -42 l39 0 -7 53 c-3 28 -6 71 -6 93 l0 42 -142 6 c-354 14 -418
14 -418 3z" />
    <path
      d="M7053 14987 c-88 -8 -103 -12 -103 -28 0 -28 11 -49 26 -49 7 0 21
-11 30 -24 14 -23 14 -30 0 -88 -25 -99 -109 -358 -116 -358 -3 0 -17 26 -30
58 -13 31 -54 122 -92 201 -37 79 -68 152 -68 162 0 11 11 24 25 31 26 12 41
41 29 59 -6 11 -66 9 -255 -7 -65 -6 -65 -7 -61 -34 2 -17 13 -32 27 -38 31
-14 82 -103 232 -407 107 -216 129 -255 147 -255 12 0 29 6 38 13 15 11 84
213 178 515 32 105 49 142 76 171 20 23 34 49 34 65 0 14 -3 25 -7 24 -5 0
-54 -6 -110 -11z" />
    <path
      d="M7990 14965 c0 -24 6 -34 25 -43 13 -6 28 -24 31 -39 9 -33 -49 -497
-66 -534 -7 -16 -25 -30 -43 -36 -21 -6 -33 -17 -38 -35 -7 -26 -5 -27 34 -33
164 -21 468 -58 495 -59 33 -1 34 0 56 69 13 39 27 78 31 87 5 13 -2 21 -30
35 l-38 18 -16 -25 c-9 -14 -30 -40 -47 -59 -26 -29 -39 -35 -85 -39 -71 -5
-126 16 -135 53 -8 31 52 508 67 536 5 10 24 22 41 27 23 6 34 16 39 36 9 33
14 31 -125 46 -61 6 -129 15 -153 19 l-43 8 0 -32z" />
    <path
      d="M6245 14895 c-5 -3 -116 -23 -245 -46 -129 -22 -236 -42 -237 -42 -1
-1 1 -14 4 -29 4 -20 12 -28 40 -33 48 -9 54 -27 104 -314 45 -255 45 -265 1
-286 -16 -7 -22 -19 -22 -42 0 -18 2 -33 5 -33 3 0 101 18 217 39 117 21 245
44 283 50 l70 12 0 92 c0 51 -4 95 -10 99 -5 4 -24 8 -41 8 -29 0 -32 -4 -39
-37 -15 -81 -59 -120 -157 -138 -77 -15 -97 10 -123 154 -20 108 -18 113 55
109 38 -3 48 -8 65 -35 16 -26 27 -32 54 -33 33 0 34 0 27 38 -20 122 -37 206
-41 210 -2 2 -16 1 -30 -2 -26 -7 -29 -10 -40 -59 -6 -30 -53 -57 -98 -57 -22
0 -25 6 -46 131 -13 71 -21 133 -18 135 3 3 36 10 74 16 86 14 132 -4 166 -64
19 -33 26 -38 47 -32 48 11 49 19 21 109 -24 77 -28 85 -51 84 -14 0 -29 -2
-35 -4z" />
    <path
      d="M8892 14849 c-29 -4 -77 -19 -106 -33 -240 -117 -276 -508 -61 -656
101 -69 259 -91 370 -49 119 45 211 167 237 317 43 253 -168 455 -440 421z
m129 -69 c49 -14 105 -73 124 -131 40 -119 6 -316 -72 -417 -38 -50 -80 -72
-139 -72 -156 0 -222 194 -149 437 22 73 73 143 125 170 48 26 60 27 111 13z" />
    <path
      d="M9514 14695 c-5 -20 0 -31 20 -50 14 -13 26 -32 26 -42 0 -29 -148
-465 -170 -500 -16 -27 -26 -33 -54 -33 -29 0 -36 -5 -44 -30 l-11 -29 82 -25
c45 -14 123 -41 174 -59 76 -28 93 -32 97 -20 12 31 5 53 -23 67 -15 8 -34 30
-41 47 -13 30 -9 46 71 282 46 137 87 253 90 259 11 18 78 -1 112 -32 31 -27
32 -31 32 -107 0 -100 -30 -166 -89 -196 -34 -18 -44 -19 -84 -8 -50 13 -65 5
-60 -34 7 -48 184 -73 263 -36 104 48 174 193 146 299 -13 48 -63 103 -119
131 -31 15 -393 141 -407 141 -2 0 -7 -11 -11 -25z" />
    <path
      d="M5325 14674 c-15 -3 -387 -123 -403 -130 -1 -1 2 -13 7 -28 8 -20 17
-26 41 -26 16 0 38 -8 49 -19 10 -10 56 -130 101 -266 70 -210 81 -251 71
-271 -6 -14 -18 -27 -26 -30 -16 -6 -20 -41 -7 -61 8 -13 299 85 392 132 169
86 237 250 180 437 -27 90 -51 137 -92 183 -51 59 -100 78 -203 81 -49 2 -99
1 -110 -2z m93 -103 c72 -37 126 -121 163 -257 48 -174 -12 -298 -149 -312
-44 -4 -50 -2 -66 22 -22 35 -187 526 -180 537 10 18 100 39 146 34 26 -2 64
-13 86 -24z" />
    <path
      d="M10236 14444 c-5 -20 -1 -33 15 -50 33 -36 22 -69 -93 -273 -116
-207 -158 -261 -206 -261 -31 0 -70 -37 -54 -51 5 -5 114 -55 209 -95 6 -3 14
7 18 25 5 23 1 35 -14 50 -12 12 -21 30 -21 41 0 23 63 147 145 285 l60 100 3
-301 2 -302 26 -6 c17 -5 34 -1 48 8 11 9 107 98 211 200 105 101 191 183 192
182 7 -7 -129 -392 -144 -408 -13 -15 -26 -18 -49 -15 -27 5 -33 1 -44 -21
-10 -22 -9 -28 6 -39 10 -7 22 -13 26 -13 5 0 63 -25 130 -55 66 -30 122 -55
123 -55 2 0 8 13 13 29 9 24 7 32 -9 47 -12 11 -19 30 -19 53 0 39 139 457
165 497 12 19 24 24 55 24 29 0 42 5 50 19 13 25 13 41 -1 41 -6 0 -56 21
-111 47 l-99 47 -205 -205 -205 -204 7 298 c6 239 4 297 -6 297 -7 0 -55 20
-108 45 -52 25 -98 45 -102 45 -4 0 -11 -12 -14 -26z" />
    <path
      d="M4414 14146 c-62 -20 -165 -77 -201 -113 -62 -62 -49 -149 29 -200
21 -14 38 -27 38 -29 0 -1 -14 -26 -32 -54 -53 -86 -39 -179 35 -234 80 -59
267 8 353 128 20 27 22 28 57 17 34 -11 40 -10 79 17 24 16 57 37 75 46 32 16
32 16 19 53 -9 24 -19 36 -27 34 -28 -9 -100 -13 -124 -7 -24 6 -25 9 -25 90
0 62 4 87 15 96 16 13 20 48 7 66 -4 7 -39 -7 -99 -38 -86 -46 -92 -51 -80
-69 9 -16 19 -19 43 -16 41 7 54 -8 54 -60 0 -52 -1 -53 -117 -12 -117 41
-181 77 -199 111 -14 26 -13 30 10 53 35 34 75 33 111 -5 24 -25 31 -27 49
-18 53 27 55 33 24 98 -31 64 -32 65 -94 46z m54 -413 c59 -20 111 -39 115
-43 14 -13 -43 -69 -83 -81 -32 -10 -44 -9 -76 7 -21 11 -49 34 -61 53 -23 34
-32 101 -13 101 6 0 59 -16 118 -37z" />
    <path
      d="M11226 13952 c-14 -27 -14 -31 4 -47 11 -10 20 -28 20 -40 0 -28
-266 -442 -301 -467 -20 -15 -30 -17 -52 -9 -22 9 -29 7 -42 -12 -8 -12 -15
-25 -15 -28 0 -4 21 -20 48 -35 26 -15 134 -84 241 -152 l193 -125 64 67 c35
37 64 70 64 74 0 4 -11 20 -23 36 l-23 29 -44 -32 c-52 -38 -106 -41 -165 -10
-60 30 -88 66 -81 101 4 21 78 151 113 197 1 2 21 -8 43 -23 44 -29 58 -64 42
-101 -10 -21 -8 -27 18 -45 l30 -21 22 38 c13 21 42 67 66 102 23 36 41 70 38
77 -2 6 -17 14 -31 18 -21 5 -33 2 -49 -13 -12 -12 -30 -21 -40 -21 -20 0 -96
40 -96 50 0 7 127 208 140 224 5 4 36 -11 70 -34 83 -57 106 -114 75 -191 -6
-15 29 -39 58 -39 7 0 32 38 55 85 23 47 38 85 34 85 -6 0 -321 198 -434 274
-27 17 -27 17 -42 -12z" />
    <path
      d="M3592 13908 c-6 -8 -62 -49 -126 -93 -63 -44 -115 -85 -116 -91 0 -6
8 -19 19 -28 15 -14 23 -15 43 -5 19 8 31 8 46 0 22 -12 147 -179 140 -187
-22 -21 -214 -151 -220 -148 -14 9 -116 160 -123 182 -4 15 -1 32 9 47 19 30
20 36 3 59 -13 17 -23 12 -145 -74 -73 -51 -132 -96 -132 -100 0 -21 38 -39
73 -33 46 7 46 6 224 -244 137 -194 154 -233 118 -263 -13 -11 -13 -16 1 -42
l15 -29 47 35 c26 20 86 63 134 96 l88 61 -17 25 c-9 14 -21 23 -27 21 -62
-23 -80 -12 -162 104 -55 78 -56 81 -38 100 23 26 194 153 198 148 2 -2 33
-46 70 -98 68 -97 79 -130 51 -161 -13 -14 -14 -22 -4 -44 7 -15 17 -25 23
-23 6 3 62 41 124 86 63 44 121 85 130 90 15 9 14 12 -7 35 -19 20 -27 23 -43
15 -44 -24 -64 -4 -218 212 -82 116 -153 222 -156 235 -4 17 0 31 12 45 14 15
16 25 8 46 -11 31 -27 39 -42 21z" />
    <path
      d="M11816 13565 c-16 -24 -16 -27 4 -52 11 -14 20 -34 20 -45 0 -21
-273 -372 -322 -413 -27 -23 -38 -26 -73 -21 -34 6 -45 3 -60 -14 -19 -21 -19
-22 -1 -32 10 -6 55 -40 99 -75 l81 -66 18 23 c22 27 22 34 3 50 -23 19 -18
61 12 105 26 39 206 270 226 290 6 7 7 -109 3 -335 l-7 -345 32 -19 c28 -16
34 -17 43 -4 109 144 380 476 396 486 12 8 34 11 49 7 20 -4 32 0 46 15 11 12
15 24 9 29 -5 5 -46 38 -91 75 l-83 65 -16 -25 c-16 -23 -16 -27 2 -59 17 -32
17 -37 2 -67 -12 -26 -118 -169 -205 -277 -12 -15 -12 38 -4 300 l10 294 -22
15 c-12 8 -46 35 -77 61 -76 62 -76 62 -94 34z" />
    <path
      d="M2848 13336 c-115 -48 -210 -135 -256 -234 -23 -48 -27 -70 -27 -142
1 -109 29 -175 116 -266 166 -172 386 -171 549 2 56 60 100 145 100 194 0 15
-37 40 -44 28 -1 -1 -9 -19 -18 -38 -71 -154 -209 -215 -343 -150 -64 31 -184
151 -216 215 -18 38 -24 66 -24 117 0 59 3 70 31 104 16 21 47 46 68 57 33 17
43 18 77 8 22 -7 54 -25 73 -41 l33 -29 27 28 28 29 -53 71 c-30 39 -56 71
-59 71 -3 -1 -31 -11 -62 -24z" />
    <path
      d="M12440 12978 c-36 -28 -66 -56 -68 -62 -1 -7 7 -24 18 -39 l21 -27
39 20 c58 30 102 26 145 -11 l36 -32 -138 -132 c-301 -287 -302 -287 -357
-244 -24 19 -30 20 -52 8 -14 -7 -23 -18 -22 -25 2 -6 61 -71 131 -144 l129
-133 21 21 c20 21 20 22 2 55 -11 21 -16 43 -12 59 4 15 89 104 208 219 l201
193 34 -37 c43 -46 45 -88 8 -143 l-26 -38 28 -23 c37 -29 42 -29 67 5 12 15
39 46 61 70 l39 42 -54 58 c-194 207 -375 392 -384 391 -5 0 -39 -24 -75 -51z" />
    <path
      d="M2220 12766 c-28 -15 -104 -85 -199 -186 l-154 -161 21 -22 c21 -20
23 -21 50 -5 27 16 31 16 60 0 51 -27 381 -350 388 -379 4 -15 2 -35 -5 -45
-10 -16 -9 -24 4 -44 9 -14 19 -24 23 -22 4 2 55 53 114 114 l108 111 -25 23
c-20 18 -28 21 -37 12 -25 -25 -57 -11 -130 55 -40 37 -74 70 -76 74 -2 4 5
17 15 28 27 32 77 27 235 -25 116 -38 142 -44 152 -32 7 7 39 43 70 80 58 67
58 68 41 94 -16 24 -18 25 -40 10 -32 -21 -74 -20 -165 4 -41 11 -99 20 -129
20 -45 0 -52 2 -47 17 41 105 17 199 -67 266 -53 43 -141 48 -207 13z m68
-130 c54 -28 102 -94 102 -141 0 -52 -55 -146 -84 -145 -6 1 -58 45 -115 99
l-104 98 18 27 c43 65 124 93 183 62z" />
    <path
      d="M13372 12065 c-18 -13 -21 -22 -16 -53 5 -30 2 -41 -18 -59 -27 -25
-420 -228 -461 -237 -17 -4 -39 0 -58 10 -31 16 -79 12 -79 -6 0 -5 27 -51 60
-102 33 -51 60 -96 60 -101 0 -5 13 1 28 11 24 18 27 26 24 60 -3 35 0 42 30
64 41 31 348 192 348 183 0 -4 -72 -117 -160 -251 -158 -241 -160 -245 -144
-269 9 -14 21 -25 26 -25 5 0 129 23 274 51 146 27 270 49 276 47 9 -3 -220
-193 -292 -241 -31 -21 -64 -22 -85 -1 -13 14 -20 14 -45 4 -17 -7 -30 -14
-30 -16 0 -2 36 -58 80 -124 44 -67 84 -129 89 -137 8 -15 11 -15 35 0 21 14
24 23 20 46 -3 16 -1 38 6 50 11 22 336 287 395 322 38 24 57 24 86 0 22 -17
26 -18 52 -4 26 13 27 16 14 31 -9 9 -39 55 -69 102 l-53 86 -270 -58 c-149
-31 -275 -58 -282 -58 -6 0 62 109 152 243 l163 242 -57 87 c-31 48 -60 94
-66 103 -9 14 -12 14 -33 0z" />
    <path
      d="M1555 12017 c-8 -12 -15 -27 -15 -33 0 -7 71 -124 158 -261 206 -322
215 -339 214 -376 -1 -29 21 -67 39 -67 6 0 116 149 127 171 1 3 -11 12 -28
19 -23 10 -34 10 -43 1 -6 -6 -19 -11 -30 -11 -21 0 -77 58 -77 80 0 12 124
207 145 228 5 5 100 -21 113 -31 8 -7 12 -21 8 -38 -4 -19 1 -32 18 -48 l24
-22 78 112 c44 61 85 120 92 130 12 16 10 19 -15 33 -19 9 -34 11 -44 5 -26
-16 -72 -10 -412 60 l-338 68 -14 -20z m290 -203 c61 -14 116 -27 123 -30 8
-2 -6 -29 -39 -76 -80 -114 -67 -115 -151 8 -100 149 -95 138 -67 130 13 -4
74 -18 134 -32z" />
    <path
      d="M1180 11453 c-46 -82 -108 -188 -137 -238 -50 -83 -53 -90 -37 -102
25 -18 41 -16 67 7 15 14 29 19 45 15 33 -8 429 -235 459 -263 21 -19 24 -30
20 -58 -5 -29 -2 -37 19 -51 14 -8 26 -14 28 -12 1 2 27 47 56 99 29 52 93
164 142 248 l89 153 -28 22 c-15 12 -47 39 -69 59 -23 21 -46 38 -51 38 -5 0
-21 -13 -36 -28 l-27 -29 21 -19 c58 -52 63 -131 12 -212 -28 -45 -31 -47 -74
-46 -33 1 -64 13 -126 49 -46 26 -83 49 -83 52 0 14 44 74 61 84 11 5 34 7 53
4 28 -6 36 -3 50 16 9 13 16 27 16 31 0 4 -27 21 -59 38 -33 16 -81 43 -108
60 l-47 30 -13 -22 c-18 -33 -16 -51 7 -66 25 -15 26 -61 4 -105 -9 -18 -18
-34 -20 -36 -2 -3 -189 99 -232 127 -30 20 78 156 132 166 17 3 46 2 64 -3 30
-9 34 -8 43 16 5 15 9 33 7 40 -2 10 -147 83 -164 83 -1 0 -39 -66 -84 -147z" />
    <path
      d="M13690 11048 c-125 -45 -215 -121 -263 -225 -29 -64 -31 -186 -3
-258 39 -101 107 -194 183 -246 l42 -30 39 28 c21 16 62 39 90 52 45 21 55 23
76 12 24 -13 66 -7 66 10 0 16 -120 249 -128 249 -4 0 -17 -7 -29 -15 -19 -13
-20 -19 -10 -51 10 -33 9 -38 -13 -56 -43 -35 -121 -69 -148 -66 -60 7 -109
132 -83 211 29 87 154 195 273 237 63 22 151 26 195 9 68 -25 123 -109 123
-185 0 -44 -4 -51 -49 -95 l-48 -47 23 -30 24 -30 77 34 c43 18 79 37 81 42 7
23 -31 163 -62 229 -94 198 -274 285 -456 221z" />
    <path
      d="M899 10918 c-48 -49 -107 -167 -115 -228 -14 -103 44 -191 147 -225
95 -32 160 -10 293 99 114 94 160 107 210 61 32 -30 35 -79 6 -134 -39 -77
-83 -94 -173 -67 l-46 14 -15 -46 c-9 -25 -15 -46 -13 -47 1 -1 36 -20 78 -43
l76 -41 41 34 c125 107 189 315 129 420 -35 62 -95 98 -172 103 -80 5 -120
-12 -230 -104 -105 -86 -154 -109 -200 -94 -40 13 -55 35 -55 80 0 81 59 126
151 116 l58 -7 11 42 c6 22 10 42 8 44 -2 1 -36 16 -76 33 l-73 31 -40 -41z" />
    <path
      d="M14259 10465 c-20 -7 -61 -19 -92 -26 -48 -10 -57 -16 -56 -33 1 -48
14 -61 56 -58 61 5 108 -19 132 -67 12 -22 18 -42 13 -44 -39 -24 -503 -197
-528 -197 -33 0 -56 15 -74 51 -8 15 -17 18 -38 13 -15 -4 -28 -8 -30 -9 -2
-2 17 -52 41 -111 24 -60 56 -142 71 -181 l28 -73 26 14 c23 12 26 19 23 58
-2 33 3 48 17 61 26 24 523 220 532 210 4 -4 13 -24 19 -45 16 -48 -5 -98 -52
-130 l-35 -22 19 -38 19 -37 89 45 89 46 -58 141 c-31 78 -83 210 -115 292
-31 83 -58 151 -59 151 0 1 -17 -4 -37 -11z" />
    <path
      d="M650 10396 c-50 -122 -190 -483 -190 -488 0 -3 12 -9 26 -12 21 -6
33 -1 55 20 21 20 34 25 53 20 14 -3 129 -47 255 -97 238 -93 266 -111 255
-155 -4 -17 1 -27 20 -40 15 -9 28 -15 30 -13 2 2 45 108 94 234 49 127 97
247 106 267 l16 37 -63 37 c-34 20 -70 44 -79 52 -20 17 -40 6 -59 -31 -9 -16
-5 -25 19 -51 16 -17 35 -41 41 -53 24 -47 5 -145 -36 -190 -20 -21 -30 -24
-60 -20 -50 8 -203 70 -203 82 0 6 10 28 23 50 20 36 27 40 65 43 29 2 46 10
57 25 23 33 19 43 -27 56 -24 7 -74 26 -112 42 -37 16 -72 29 -76 29 -4 0 -10
-14 -14 -31 -5 -26 -1 -36 24 -59 32 -30 33 -46 6 -112 l-11 -27 -123 49 c-68
27 -126 51 -128 53 -10 10 41 118 68 146 30 31 82 48 119 38 15 -4 23 1 30 21
17 45 9 53 -84 76 l-89 23 -8 -21z" />
    <path
      d="M2411 9751 c-16 -29 -24 -139 -13 -176 7 -26 14 -31 58 -38 86 -15
288 -74 346 -102 85 -40 103 -63 117 -145 29 -175 32 -445 28 -2025 -5 -1873
-2 -1819 -97 -1877 -57 -34 -189 -73 -330 -95 l-110 -17 -6 -34 c-7 -37 -1
-173 9 -189 4 -6 34 -6 79 -2 337 34 1004 41 1478 15 162 -9 323 -16 357 -16
l61 0 7 65 c4 35 3 86 -1 112 l-9 47 -130 22 c-289 48 -417 102 -444 187 -41
126 -44 181 -48 904 -5 797 -9 754 74 794 113 55 243 -19 416 -235 99 -125
178 -243 352 -526 280 -456 404 -615 638 -816 150 -129 291 -222 472 -310 648
-316 1518 -377 2245 -157 678 205 1197 614 1467 1158 113 227 174 421 214 685
8 50 14 408 19 1075 6 888 8 1007 23 1063 19 72 50 137 80 169 53 58 215 89
547 103 406 18 635 -16 864 -125 457 -218 782 -768 862 -1455 20 -182 15 -600
-11 -785 -100 -723 -407 -1223 -903 -1470 -109 -55 -303 -120 -430 -146 -414
-82 -881 20 -1404 307 l-68 36 -112 -106 c-61 -59 -159 -143 -215 -186 l-104
-79 48 -21 c321 -145 664 -244 1028 -296 171 -24 641 -30 833 -10 672 71 1222
308 1613 696 351 348 554 783 631 1350 20 151 17 580 -5 715 -66 398 -198 709
-429 1016 -224 298 -473 508 -783 660 -305 149 -620 225 -1031 249 -93 5 -567
10 -1054 10 -487 0 -982 5 -1100 10 -139 6 -218 5 -225 -1 -11 -11 -20 -158
-11 -193 5 -21 13 -25 68 -31 101 -10 265 -53 334 -85 96 -46 110 -76 136
-280 10 -80 13 -324 13 -1025 0 -850 -1 -929 -19 -1040 -51 -327 -178 -631
-371 -890 -79 -107 -279 -305 -388 -387 -233 -173 -513 -294 -792 -343 -135
-24 -386 -25 -514 -1 -335 61 -622 223 -891 502 -154 160 -225 261 -459 647
-303 499 -363 604 -359 630 2 17 26 34 103 72 146 73 236 137 353 249 252 243
390 509 423 816 35 320 -72 653 -280 874 -197 209 -576 390 -956 457 -129 23
-135 23 -1115 24 -542 0 -1026 5 -1076 9 -88 8 -92 8 -103 -13z m1985 -351
c198 -25 329 -84 445 -200 65 -64 85 -94 127 -181 86 -178 118 -356 109 -619
-6 -192 -26 -287 -86 -416 -70 -149 -164 -261 -288 -344 -107 -72 -177 -91
-354 -97 -262 -10 -461 24 -528 89 -63 61 -61 41 -61 680 0 577 8 799 35 932
19 93 34 112 100 131 105 31 355 43 501 25z" />
    <path
      d="M14538 9738 c-20 -7 -28 -16 -28 -33 0 -42 -40 -59 -236 -104 -238
-55 -283 -71 -328 -121 -41 -46 -51 -86 -43 -184 7 -92 29 -154 73 -204 64
-76 140 -79 399 -18 222 53 238 54 268 22 25 -26 61 -34 72 -16 5 9 -32 197
-41 208 -1 2 -16 1 -33 -3 -24 -5 -31 -12 -31 -30 0 -52 -25 -63 -256 -116
-241 -55 -293 -52 -341 20 -17 25 -23 48 -23 86 0 97 45 128 263 179 274 66
292 67 316 23 10 -18 19 -22 42 -19 16 2 29 7 29 11 0 11 -69 303 -72 306 -2
1 -15 -2 -30 -7z" />
    <path
      d="M7045 9715 c-412 -65 -750 -326 -863 -668 -46 -136 -55 -217 -49
-407 9 -274 60 -445 224 -755 58 -110 121 -224 139 -253 19 -29 34 -54 34 -56
0 -3 -55 -37 -122 -77 -402 -237 -688 -486 -832 -727 -34 -57 -37 -66 -27 -90
25 -54 204 -338 263 -416 118 -156 374 -397 480 -452 34 -17 34 -15 7 38 -60
118 -91 366 -70 561 27 245 101 404 274 584 67 70 209 191 251 215 9 5 29 -17
62 -64 200 -293 448 -592 694 -838 166 -167 405 -380 425 -380 4 0 45 32 91
71 90 76 200 193 278 297 l49 64 -24 22 c-13 12 -73 67 -133 122 -190 173
-443 457 -627 704 -119 160 -231 329 -224 339 3 5 31 24 63 41 89 51 316 204
410 278 403 314 586 656 569 1062 -9 217 -66 349 -212 495 -162 161 -356 250
-635 290 -126 18 -383 18 -495 0z m427 -333 c186 -91 301 -326 301 -612 0
-181 -33 -310 -114 -447 -65 -109 -273 -297 -448 -407 -54 -34 -50 -37 -128
114 -195 381 -274 624 -274 840 0 168 46 299 144 406 101 110 186 145 347 141
96 -2 112 -5 172 -35z" />
    <path
      d="M460 9641 c-47 -25 -93 -86 -112 -152 -9 -30 -32 -126 -51 -214 -19
-88 -36 -167 -38 -175 -8 -30 46 -23 79 10 22 22 38 29 54 26 129 -28 473
-109 492 -116 27 -10 46 -38 46 -68 0 -17 23 -31 52 -32 4 0 12 26 18 58 11
55 45 198 56 235 8 26 -57 24 -74 -3 -8 -14 -23 -20 -46 -20 -39 0 -177 29
-189 40 -4 4 -5 20 -1 35 9 37 78 67 214 95 151 31 143 25 158 116 7 44 15 91
18 105 5 22 2 27 -21 33 -23 6 -32 1 -59 -28 -25 -29 -49 -40 -132 -66 -56
-16 -113 -40 -128 -51 -15 -12 -28 -20 -30 -18 -2 2 -9 26 -16 53 -34 124
-183 195 -290 137z m121 -162 c48 -16 88 -57 100 -102 12 -46 3 -116 -17 -124
-13 -5 -271 50 -281 61 -13 13 10 98 34 127 41 49 94 61 164 38z" />
    <path
      d="M381 7782 c-38 -20 -71 -73 -71 -112 0 -64 67 -130 133 -130 66 0
127 62 127 130 0 47 -33 98 -75 116 -46 19 -73 18 -114 -4z" />
    <path
      d="M14424 7781 c-47 -28 -64 -59 -64 -113 0 -39 6 -54 31 -82 52 -60
126 -61 186 -1 28 28 33 40 33 83 0 58 -25 97 -76 118 -45 19 -73 18 -110 -5z" />
    <path
      d="M14070 6572 c-7 -31 -22 -99 -35 -151 -13 -52 -22 -98 -19 -103 11
-18 52 -7 68 18 14 20 24 25 51 22 29 -3 48 -21 164 -162 72 -87 130 -160 128
-162 -2 -2 -19 1 -38 5 -19 5 -96 24 -173 41 -146 34 -176 50 -176 95 0 18 -7
26 -25 31 -14 4 -27 5 -28 3 -5 -7 -67 -283 -67 -296 0 -8 13 -13 30 -13 17 0
30 4 30 9 0 20 33 41 63 41 40 0 448 -95 485 -112 20 -10 28 -22 30 -45 2 -24
10 -34 32 -41 l28 -10 17 76 c9 42 25 111 35 152 15 57 16 76 7 82 -22 14 -45
8 -61 -16 -18 -28 -49 -41 -70 -29 -16 9 -279 324 -274 328 8 9 350 -82 368
-97 11 -10 20 -29 20 -43 0 -18 7 -26 25 -31 14 -4 27 -5 29 -3 2 2 17 65 34
139 16 74 32 142 34 150 2 10 -6 16 -28 18 -24 2 -33 -2 -42 -23 -9 -20 -19
-25 -50 -25 -43 0 -451 94 -491 113 -19 9 -27 21 -29 44 -2 24 -10 34 -32 42
l-29 10 -11 -57z" />
    <path
      d="M878 6519 c-10 -5 -18 -20 -18 -33 0 -13 -8 -30 -18 -39 -11 -10
-108 -38 -233 -66 -307 -71 -284 -69 -318 -32 -23 24 -35 30 -54 26 l-24 -6
33 -137 c19 -75 34 -145 34 -154 0 -21 1 -21 34 -9 16 7 26 19 28 37 2 15 14
35 28 46 l25 18 193 -86 c105 -48 192 -90 192 -93 0 -12 -340 -83 -365 -77
-13 3 -29 15 -35 26 -7 13 -21 20 -40 20 -17 0 -30 -1 -30 -3 0 -13 70 -301
75 -305 3 -3 16 0 30 6 16 8 25 20 25 35 0 13 8 31 19 41 23 21 485 130 518
121 13 -3 29 -17 35 -31 10 -21 16 -24 37 -19 14 4 28 8 30 10 1 2 -9 52 -23
112 -14 59 -28 127 -32 151 -4 23 -12 42 -18 42 -18 -1 -51 -24 -52 -37 -1 -7
-2 -20 -2 -28 -1 -8 -14 -21 -28 -28 -28 -15 -41 -10 -349 133 l-70 32 165 39
c91 21 177 39 192 39 26 0 58 -22 58 -41 0 -5 16 -9 36 -9 29 0 34 3 30 18 -8
23 -66 275 -66 285 0 10 -22 8 -42 -4z" />
    <path
      d="M13820 5588 c-52 -155 -95 -284 -95 -285 0 -1 37 -21 83 -43 l83 -40
19 33 20 32 -40 35 c-39 35 -63 78 -56 102 3 7 7 25 10 40 l6 26 252 -84 c282
-93 304 -106 292 -170 -5 -29 -3 -35 20 -45 14 -7 27 -10 29 -8 2 2 28 80 60
174 58 173 59 184 15 185 -10 0 -24 -13 -33 -30 -8 -16 -26 -32 -40 -36 -28
-7 -525 154 -532 173 -3 6 3 28 13 49 20 42 66 66 121 62 34 -3 37 0 45 31 5
18 7 35 4 38 -3 3 -33 12 -68 19 -35 8 -74 17 -88 20 -25 5 -26 1 -120 -278z" />
    <path
      d="M1064 5748 c-14 -7 -20 -17 -17 -32 9 -46 -23 -63 -265 -146 -128
-44 -242 -80 -252 -80 -10 0 -28 11 -39 25 -15 20 -25 24 -45 19 -14 -3 -26
-8 -26 -11 0 -11 94 -278 100 -286 4 -4 18 -3 32 3 19 9 23 17 20 38 -5 39 17
55 132 96 54 20 100 36 101 36 4 0 79 -191 89 -227 6 -19 -2 -24 -101 -57 -59
-20 -116 -36 -125 -36 -9 0 -26 12 -37 26 -16 21 -26 25 -49 19 l-29 -6 49
-135 c26 -74 48 -141 48 -149 0 -18 14 -19 41 -5 12 7 19 21 19 39 0 15 8 36
19 45 18 17 468 176 497 176 8 0 26 -11 39 -25 18 -20 29 -24 49 -19 14 3 26
7 26 8 0 4 -102 291 -104 294 -2 1 -15 -3 -30 -9 -17 -8 -25 -18 -21 -27 16
-42 -22 -70 -149 -112 -53 -17 -70 -20 -76 -10 -12 19 -83 230 -79 234 9 7
191 66 205 66 8 0 26 -12 39 -26 19 -21 30 -25 51 -20 19 5 25 12 21 24 -27
90 -97 277 -104 278 -4 2 -17 -2 -29 -8z" />
    <path
      d="M13692 5165 c-28 -30 -66 -85 -83 -121 -45 -90 -52 -209 -19 -297 42
-112 165 -203 309 -228 112 -20 228 18 301 97 78 85 119 209 106 317 -7 51
-10 57 -30 57 -21 0 -24 -6 -29 -65 -11 -115 -70 -211 -146 -237 -60 -20 -158
-13 -234 15 -165 64 -250 171 -218 278 26 87 91 124 173 100 45 -14 55 -9 64
34 6 31 8 30 -137 103 -4 1 -29 -22 -57 -53z" />
    <path
      d="M1324 5015 c-15 -10 -20 -22 -17 -39 3 -13 0 -33 -6 -44 -13 -25
-441 -242 -476 -242 -14 0 -33 9 -43 20 -16 17 -24 19 -46 11 -14 -6 -26 -12
-26 -14 0 -2 29 -59 64 -128 34 -68 65 -131 68 -139 4 -13 8 -13 32 -1 22 12
26 19 21 43 -5 21 -1 33 18 52 23 22 176 106 194 106 9 0 123 -204 123 -220 0
-12 -195 -110 -218 -110 -9 0 -26 10 -39 22 -20 18 -26 20 -49 10 -14 -7 -24
-16 -22 -20 4 -9 132 -266 136 -271 1 -2 13 2 27 9 21 11 25 19 19 43 -4 20
-1 34 13 49 22 25 447 238 474 238 10 0 28 -9 40 -21 15 -15 26 -18 45 -12 13
4 24 11 24 16 0 7 -128 268 -136 276 -2 2 -14 -3 -27 -12 -19 -12 -23 -22 -19
-42 7 -37 -19 -60 -119 -110 l-85 -43 -57 114 c-31 63 -57 117 -57 119 0 9
182 95 201 95 10 0 27 -9 37 -21 14 -15 26 -18 46 -13 14 3 26 10 26 15 0 13
-134 279 -140 279 -3 0 -15 -7 -26 -15z" />
    <path
      d="M13463 4520 c-87 -29 -161 -98 -210 -198 -35 -70 -38 -82 -38 -162 1
-73 5 -93 30 -143 36 -72 104 -136 192 -179 88 -43 200 -50 284 -19 137 52
230 192 230 349 0 139 -84 261 -227 329 -93 44 -174 51 -261 23z m96 -141
c107 -24 231 -107 282 -187 68 -108 12 -228 -117 -248 -136 -20 -374 111 -420
232 -52 135 83 243 255 203z" />
    <path
      d="M1493 4181 c-104 -38 -195 -120 -240 -216 -82 -180 31 -423 226 -481
37 -11 78 -15 130 -12 134 8 266 92 328 210 24 46 28 64 28 143 0 85 -2 96
-38 167 -67 137 -176 208 -315 208 -39 -1 -88 -8 -119 -19z m297 -120 c45 -23
80 -84 80 -137 0 -60 -51 -154 -113 -209 -29 -25 -85 -63 -126 -83 -64 -32
-85 -37 -142 -37 -81 0 -112 18 -147 86 -49 94 11 214 157 314 118 80 221 104
291 66z" />
    <path
      d="M13013 3928 c-28 -40 -69 -98 -92 -128 -22 -30 -41 -57 -41 -61 0 -3
12 -11 26 -18 22 -10 30 -9 44 4 28 25 53 18 144 -46 l86 -60 -51 -72 c-28
-40 -61 -87 -72 -104 -12 -18 -26 -33 -30 -33 -17 0 -165 113 -174 133 -6 14
-7 31 -1 46 6 18 4 29 -8 42 -10 11 -20 19 -24 19 -5 0 -44 -51 -89 -114 -44
-63 -85 -117 -91 -121 -16 -10 -12 -23 11 -36 17 -9 28 -7 53 6 31 17 34 17
72 -3 61 -33 375 -264 396 -293 15 -20 17 -31 9 -51 -8 -21 -6 -29 13 -47 l23
-22 28 43 c15 24 57 83 93 131 35 48 63 89 61 91 -2 2 -14 9 -27 15 -20 10
-27 10 -41 -3 -27 -25 -54 -19 -117 25 -33 22 -74 50 -91 62 -18 12 -33 25
-33 29 0 4 32 54 71 113 l70 105 57 -40 c31 -22 77 -57 101 -77 40 -33 43 -39
38 -74 -4 -29 0 -42 14 -55 11 -9 21 -15 23 -13 6 6 172 235 180 247 4 7 -3
17 -18 23 -20 10 -30 9 -51 -5 -16 -11 -34 -15 -48 -10 -29 9 -384 264 -417
298 -21 23 -23 30 -13 56 9 25 8 31 -11 49 l-22 21 -51 -72z" />
    <path
      d="M2107 3672 c-11 -12 -14 -29 -10 -57 6 -48 13 -41 -225 -229 -175
-137 -209 -155 -240 -124 -16 16 -66 -7 -59 -26 9 -22 215 -274 260 -317 107
-103 227 -104 315 -5 51 58 52 140 4 215 l-17 26 39 -25 c107 -66 246 2 246
119 0 60 -35 122 -156 273 -59 73 -112 141 -118 151 -14 21 -19 21 -39 -1z
m169 -274 c44 -85 -21 -178 -126 -178 -34 0 -46 6 -80 42 -23 22 -37 45 -33
49 4 4 48 39 97 78 86 69 90 71 109 54 10 -10 25 -30 33 -45z m-260 -177 c56
-85 48 -153 -24 -208 -59 -45 -107 -45 -157 -2 -40 35 -52 68 -36 98 14 25
161 150 178 151 7 0 24 -18 39 -39z" />
    <path
      d="M12497 3255 l-108 -112 26 -17 c19 -12 30 -14 44 -6 39 20 61 10 138
-64 l77 -73 -89 -97 -88 -97 -79 78 c-79 79 -95 112 -66 141 10 10 7 17 -10
35 l-23 22 -110 -113 -111 -112 24 -19 c20 -17 26 -18 50 -5 23 12 32 12 53 2
29 -16 350 -321 372 -354 13 -21 13 -27 0 -53 -14 -28 -13 -31 7 -49 l21 -20
109 114 108 114 -23 19 c-21 17 -26 17 -44 5 -10 -8 -27 -14 -37 -14 -16 0
-183 147 -183 162 0 13 159 188 170 188 18 0 175 -166 175 -184 0 -9 -5 -25
-12 -36 -10 -15 -9 -23 7 -40 10 -11 21 -19 24 -18 3 2 53 51 111 111 104 107
104 107 84 127 -17 17 -23 18 -51 8 -21 -8 -38 -9 -52 -2 -32 14 -369 341
-376 365 -4 12 -1 32 6 45 10 20 10 27 -6 44 -10 11 -21 19 -24 19 -3 -1 -55
-52 -114 -114z" />
    <path
      d="M2455 2842 c-238 -95 -301 -116 -349 -118 -38 -2 -65 -9 -75 -19 -14
-14 -9 -22 56 -87 70 -70 73 -71 92 -54 15 13 18 26 14 56 -5 38 -4 40 41 62
l46 22 95 -94 94 -93 -25 -49 c-27 -54 -43 -65 -71 -50 -14 8 -25 6 -43 -8
l-24 -18 105 -110 c98 -103 105 -109 122 -94 13 12 17 25 13 47 -6 33 5 64
159 442 97 238 98 243 80 263 -10 11 -23 20 -29 19 -6 0 -141 -53 -301 -117z
m115 -84 c-21 -46 -48 -105 -60 -133 l-21 -50 -69 75 c-38 41 -69 77 -69 80 0
4 234 106 251 109 4 0 -10 -36 -32 -81z" />
    <path
      d="M12016 2761 c-5 -7 -204 -178 -355 -304 -32 -27 -33 -29 -16 -47 14
-15 26 -18 59 -14 48 7 45 10 236 -216 150 -178 156 -189 134 -231 -15 -30
-15 -33 4 -51 19 -20 21 -19 198 134 99 84 194 165 212 179 l33 25 -47 77
c-48 79 -64 89 -98 64 -17 -13 -18 -18 -6 -64 18 -68 7 -99 -51 -155 -68 -67
-88 -65 -162 15 -33 34 -66 73 -75 86 -16 23 -15 25 18 52 39 33 65 36 98 13
20 -14 25 -14 51 2 l29 17 -56 66 c-32 36 -68 80 -80 96 l-24 30 -23 -27 c-22
-26 -23 -29 -9 -57 17 -35 11 -51 -34 -94 l-30 -28 -87 102 -88 103 34 29 c84
72 136 84 197 47 36 -22 52 -17 73 21 7 14 -3 29 -52 76 -67 64 -74 69 -83 54z" />
    <path
      d="M3010 2651 c-7 -15 -6 -27 8 -50 16 -30 16 -32 -3 -66 -11 -19 -82
-116 -159 -215 -140 -182 -163 -203 -204 -181 -15 8 -23 6 -41 -13 l-21 -22
260 -198 c143 -109 262 -201 264 -205 3 -4 -18 -40 -46 -81 l-50 -75 34 -28
c18 -15 38 -26 44 -25 19 5 144 159 144 178 0 10 -11 25 -25 34 -42 28 -51 59
-28 98 36 60 284 378 308 394 18 12 27 12 49 3 24 -11 29 -10 49 10 l22 23
-25 16 c-13 10 -69 52 -124 95 -55 42 -104 77 -108 77 -5 0 -13 -11 -19 -24
-9 -19 -8 -29 6 -49 15 -24 15 -29 2 -56 -30 -61 -300 -401 -323 -407 -30 -8
-75 18 -135 75 -46 44 -49 50 -39 75 15 41 300 406 325 418 16 7 29 7 45 -2
19 -10 26 -9 44 10 l21 21 -30 22 c-16 12 -72 55 -123 95 -51 39 -97 72 -102
72 -5 0 -14 -9 -20 -19z" />
    <path
      d="M11550 2366 c-8 -8 -103 -76 -210 -151 -242 -170 -230 -159 -203
-186 17 -17 24 -19 41 -10 49 26 70 15 123 -66 78 -121 141 -255 146 -310 5
-46 3 -51 -30 -80 -19 -17 -41 -33 -48 -35 -18 -6 -4 -47 30 -87 l28 -35 48
18 c131 50 113 169 -74 486 -100 169 -104 177 -91 201 14 25 68 59 96 59 11 0
30 -10 41 -22 42 -46 284 -393 289 -415 4 -14 -1 -33 -10 -48 -14 -21 -15 -29
-4 -50 l13 -24 120 85 c149 106 142 99 121 123 -13 14 -26 18 -55 14 -35 -5
-40 -2 -73 38 -49 60 -264 370 -271 390 -3 9 2 30 11 48 22 47 -5 89 -38 57z" />
    <path
      d="M3698 2135 c-9 -21 -9 -30 0 -43 34 -47 32 -51 -115 -281 -132 -206
-147 -224 -191 -219 -23 3 -38 -2 -52 -17 l-20 -22 135 -86 135 -86 15 28 c13
25 12 30 -7 48 -24 25 -19 67 11 82 28 15 382 143 386 139 3 -3 -171 -275
-194 -303 -10 -11 -26 -15 -54 -13 -31 2 -42 -1 -53 -18 -14 -20 -9 -24 93
-89 60 -38 119 -77 132 -87 23 -18 24 -18 39 3 13 18 12 24 -3 53 -11 20 -15
42 -12 57 10 34 261 421 285 437 14 9 26 10 45 3 20 -8 28 -6 41 8 9 10 16 22
16 27 0 7 -229 158 -260 172 -4 1 -12 -9 -18 -23 -10 -22 -9 -30 8 -54 17 -21
19 -33 11 -52 -8 -21 -37 -35 -207 -97 -109 -39 -199 -70 -201 -68 -5 4 165
267 190 294 18 19 29 23 59 19 31 -4 40 -1 52 18 15 23 13 24 -97 95 -62 39
-122 78 -134 87 -21 14 -23 14 -35 -12z" />
    <path
      d="M10882 1902 c-131 -67 -132 -67 -117 -90 11 -14 26 -22 45 -22 21 0
36 -9 54 -32 33 -44 226 -435 226 -458 0 -44 -116 -104 -158 -81 -28 15 -242
439 -242 479 0 16 6 35 14 41 11 10 12 19 4 41 l-10 29 -133 -66 -134 -67 16
-26 c12 -20 21 -26 40 -22 13 2 31 -2 41 -11 9 -9 68 -119 131 -246 114 -229
114 -230 97 -256 -19 -28 -87 -64 -122 -65 -11 0 -28 8 -36 18 -19 21 -218
416 -229 454 -5 20 -3 33 11 50 14 17 15 28 8 50 l-10 27 -140 -70 c-136 -69
-139 -71 -125 -92 11 -16 25 -22 52 -22 25 0 41 -6 52 -20 21 -28 214 -414
224 -448 6 -22 3 -33 -15 -54 -19 -22 -22 -32 -14 -53 l9 -27 452 227 c249
125 459 229 467 232 13 4 13 8 1 31 -13 23 -19 26 -47 21 -25 -5 -36 -1 -54
18 -31 33 -230 434 -230 463 0 14 9 34 21 46 18 18 19 25 10 45 -6 13 -14 24
-18 23 -5 0 -68 -30 -141 -67z" />
    <path
      d="M4346 1724 c-5 -20 -2 -32 15 -47 31 -29 24 -54 -81 -287 -101 -226
-120 -254 -162 -246 -23 4 -30 1 -42 -21 l-13 -27 141 -63 c129 -58 142 -62
154 -46 17 24 15 41 -9 53 -16 9 -19 19 -17 47 3 35 5 37 186 135 101 55 185
98 188 96 7 -7 -132 -307 -152 -329 -10 -11 -30 -19 -50 -19 -23 0 -37 -6 -44
-20 -11 -21 -6 -40 11 -40 6 0 69 -26 139 -59 l129 -58 9 26 c8 22 5 32 -15
55 -29 34 -31 26 59 231 129 293 142 312 192 299 17 -4 25 1 36 22 9 17 11 29
5 31 -5 2 -71 30 -144 63 -100 44 -137 57 -143 47 -12 -20 -9 -36 13 -66 39
-53 26 -67 -168 -171 -199 -108 -193 -105 -193 -92 0 22 141 318 158 330 9 7
30 11 45 9 22 -3 31 2 42 22 l13 26 -142 63 c-78 34 -144 62 -148 62 -3 0 -9
-12 -12 -26z" />
    <path
      d="M10035 1486 c-16 -7 -82 -30 -145 -51 -63 -21 -117 -40 -119 -42 -2
-1 1 -14 7 -28 8 -18 19 -25 40 -25 16 0 37 -9 47 -20 19 -21 175 -458 175
-491 0 -11 -11 -30 -24 -42 -18 -17 -23 -30 -19 -50 3 -15 6 -27 7 -27 1 0 56
20 122 43 65 24 131 47 147 51 29 7 33 17 17 47 -7 12 -21 19 -39 19 -15 0
-36 8 -45 19 -18 20 -176 460 -176 491 0 10 12 28 26 39 23 18 26 25 18 50 -9
28 -10 29 -39 17z" />
    <path
      d="M5244 1334 c-6 -22 -2 -31 20 -46 17 -13 26 -29 26 -47 0 -46 -126
-480 -145 -501 -10 -11 -31 -20 -46 -20 -22 0 -30 -6 -35 -25 -4 -14 -5 -28
-3 -29 2 -2 90 -27 194 -55 138 -37 208 -51 255 -51 69 0 132 22 162 56 46 52
62 158 33 214 -16 32 -67 74 -105 88 -22 8 -20 10 22 16 90 13 148 77 148 162
0 96 -67 140 -324 210 -93 25 -174 48 -182 51 -8 3 -16 -5 -20 -23z m292 -124
c73 -36 91 -111 44 -188 -25 -41 -80 -58 -138 -43 -23 7 -42 17 -42 24 0 7 14
59 30 117 17 58 30 106 30 107 0 9 40 0 76 -17z m-105 -295 c53 -19 106 -68
114 -106 9 -38 -11 -102 -41 -138 -33 -40 -81 -49 -130 -25 -59 30 -62 41 -35
146 25 98 38 138 44 138 3 0 24 -7 48 -15z" />
    <path
      d="M9500 1301 c-8 -5 -78 -30 -155 -57 -77 -26 -142 -49 -144 -51 -2 -1
1 -14 7 -28 8 -18 19 -25 40 -25 16 0 36 -8 46 -19 17 -19 160 -413 171 -474
6 -29 3 -38 -20 -59 -21 -20 -25 -30 -19 -52 5 -20 11 -25 23 -21 9 3 72 26
141 51 197 71 226 83 268 119 49 43 72 90 72 149 0 78 -40 150 -102 182 -43
22 -140 17 -225 -11 -42 -14 -77 -24 -78 -23 -11 13 -55 155 -55 179 0 29 37
79 60 79 11 0 13 29 4 54 -7 18 -13 19 -34 7z m215 -392 c46 -41 72 -122 55
-174 -19 -57 -98 -85 -133 -47 -15 16 -87 201 -87 222 0 12 50 28 92 29 28 1
46 -7 73 -30z" />
    <path
      d="M9148 1185 c-2 -3 -54 -13 -114 -23 l-109 -19 -46 -254 c-25 -140
-48 -262 -50 -272 -3 -13 -55 56 -162 216 l-159 234 -86 -18 c-48 -10 -100
-18 -116 -19 -24 0 -28 -3 -22 -22 3 -13 6 -26 6 -30 0 -5 10 -8 23 -8 56 -1
64 -27 88 -272 23 -243 21 -283 -15 -315 -17 -14 -26 -32 -26 -51 l0 -28 88
18 c48 10 97 18 110 18 48 0 35 63 -16 73 -18 4 -33 16 -41 33 -13 29 -44 319
-39 366 3 24 26 -5 161 -202 104 -152 164 -230 176 -230 41 0 49 21 102 288
29 145 56 259 60 255 11 -12 109 -352 109 -380 0 -16 -10 -29 -30 -41 -30 -17
-37 -36 -21 -61 7 -11 33 -9 157 14 82 16 150 29 152 30 2 2 0 14 -3 28 -5 17
-15 27 -35 31 -16 3 -36 16 -44 28 -26 40 -149 476 -142 503 4 14 18 31 31 37
19 9 25 19 25 45 0 33 -2 38 -12 28z" />
    <path
      d="M6120 1104 c0 -19 9 -36 27 -50 21 -17 26 -28 25 -60 -3 -71 -81
-466 -97 -490 -9 -15 -25 -24 -40 -24 -18 0 -28 -8 -36 -26 -5 -15 -8 -28 -6
-30 2 -2 66 -15 143 -29 76 -14 144 -27 151 -30 6 -2 14 3 17 11 10 27 6 54
-7 54 -21 0 -47 34 -47 59 0 41 81 465 93 491 12 23 17 25 84 24 91 -2 147
-26 151 -66 4 -34 -75 -464 -91 -498 -7 -13 -26 -29 -42 -35 -33 -11 -45 -22
-45 -45 0 -12 30 -21 128 -38 70 -12 139 -25 155 -28 25 -6 27 -4 27 24 0 21
-8 35 -25 46 -20 13 -25 25 -25 55 0 60 79 473 96 499 9 14 24 22 43 22 21 0
30 6 35 23 9 34 8 36 -26 41 -75 13 -645 117 -665 123 -20 4 -23 1 -23 -23z" />
    <path
      d="M6860 979 c0 -19 6 -31 18 -35 34 -11 46 -21 52 -45 4 -13 3 -131 -1
-262 -8 -255 -14 -282 -61 -289 -18 -2 -24 -10 -26 -35 l-3 -33 160 0 c87 0
166 -3 175 -6 13 -5 16 1 16 29 0 32 -3 35 -34 41 -37 7 -61 29 -69 66 -7 30
8 508 16 516 3 3 22 6 42 6 95 0 140 -56 140 -172 -1 -115 -47 -176 -128 -168
-30 3 -32 1 -32 -27 0 -27 4 -30 40 -36 54 -9 129 6 181 36 106 62 144 247 72
348 -12 16 -45 41 -74 54 -56 25 -73 27 -356 37 l-128 5 0 -30z" />
    <path
      d="M7782 994 c-72 -19 -107 -39 -156 -88 -66 -65 -90 -124 -94 -233 -4
-74 0 -106 18 -164 19 -63 30 -81 83 -134 79 -78 135 -100 257 -99 110 1 187
33 258 108 69 73 95 145 95 261 0 123 -26 190 -103 266 -47 47 -68 61 -124 78
-78 24 -158 26 -234 5z m164 -80 c46 -31 57 -44 88 -104 46 -89 60 -239 31
-338 -51 -170 -237 -177 -321 -10 -90 177 -60 429 56 471 42 15 108 6 146 -19z" />
  </g>
</svg>