<svg width="24" height="24" viewBox="0 0 24 24" fill="none"
     xmlns="http://www.w3.org/2000/svg">
    <path fill-rule="evenodd" clip-rule="evenodd"
          d="M16.7082 8.70698C17.0987 8.31646 17.0987 7.6833 16.7082 7.29277C16.3177 6.90225 15.6845 6.90225 15.294 7.29277L12.0005 10.5863L8.70751 7.29337C8.31699 6.90285 7.68383 6.90285 7.2933 7.29337C6.90278 7.6839 6.90278 8.31706 7.2933 8.70758L10.5862 12.0005L7.29289 15.2939C6.90237 15.6844 6.90237 16.3176 7.29289 16.7081C7.68342 17.0986 8.31658 17.0986 8.70711 16.7081L12.0005 13.4147L15.2944 16.7087C15.6849 17.0992 16.3181 17.0992 16.7086 16.7087C17.0992 16.3182 17.0992 15.685 16.7086 15.2945L13.4147 12.0005L16.7082 8.70698Z"
          fill="currentColor"/>
</svg>